<svg fill="none" height="64" viewBox="0 16 64 64" width="64" xmlns="http://www.w3.org/2000/svg" xmlns:xlink="http://www.w3.org/1999/xlink">
<clipPath id="a">
<path d="m0 0h64v64h-64z"/>
</clipPath>
<g clip-path="url(#a)" fill="#000">
<path d="m59.7848 55.0978-4.7215-1.9455v-1.8265c1.5802-1.5599 2.9057-4.2199 3.1352-6.4196 1.6021-4.119-.1327-7.5965-1.9078-9.2153.4981-2.7987-1.8551-5.6213-4.7489-5.5653-2.8767.0077-5.2138 2.6022-4.7515 5.5495-1.0517.9147-1.9108 2.3098-2.3482 3.8422-.56 1.962-.386 3.9728.484 5.6848.3261 2.1483 1.5325 4.5367 3.0964 6.1197v1.8306l-3.736 1.5395c-.4354-.539-.9888-.9862-1.6349-1.2917-.468-.2213-1.0269-.0214-1.2483.4466-.2213.4681-.0213 1.027.4467 1.2484.979.463 1.6116 1.4622 1.6116 2.5457v4.4843h-10.4965v-4.724c.9699-.0335 1.7484-.8328 1.7484-1.8105v-2.5359c.2793-.1667.5431-.3611.7891-.579l2.3471.9673c.343.1306.9399.0692 1.224-.5097.1974-.4787-.0309-1.0267-.5096-1.224l-2.3445-.9661v-3.5547c2.1975-1.8189 3.5009-4.7739 3.9076-7.9538 1.0961-1.8456 2.9041-6.6901-.2764-9.9105-1.3111-1.3274-3.1673-1.5865-4.679-1.2737-1.2191-2.6717-5.2388-2.9925-8.6387-1.0045-.4455.2637-.5928.8388-.3289 1.2843.2638.4454.839.5928 1.2844.3289 2.6877-1.4707 5.5077-1.4424 6.0694.4694l-1.2014 3.2059c-.6635.7368-1.5018 1.306-2.4375 1.6465-2.3204.8445-3.8885 2.1921-4.813 3.2036-.4671-1.5339-.7156-3.8295-.0143-5.7384.1785-.4861-.0706-1.0247-.5567-1.2034-.4858-.1783-1.0246.0708-1.2033.5567-1.0885 2.9627-.3783 6.665.598 8.4426.4304 3.1667 1.5875 5.9699 3.908 7.9479v3.5533l-6.2127 2.5599c-.7521.3099-1.3895.7984-1.8748 1.4034l-3.7717-1.5543v-2.0435c1.7754-1.9386 3.2369-5.4997 3.1915-7.8885 0-4.3553-2.5095-6.9556-6.7129-6.9556-1.6647 0-3.07186.4066-4.18186 1.2084-.41975.3032-.51425.8892-.211 1.309.30325.4197.88925.5142 1.30888.211.78388-.5663 1.82148-.8534 3.08398-.8534 3.9985 0 4.8379 2.7629 4.8379 5.0806.143 2.3908-2.4154 7.767-4.8379 8.0073-2.84886-.5349-5.31498-6.2405-4.77161-9.0704.06725-.5134-.29437-.9841-.80775-1.0514-.51325-.0658-.984.2944-1.05137.8078-.43613 2.9666.90487 6.6347 3.11112 9.1962v2.0423l-4.7215 1.9455c-1.52887.6299-2.51687 2.1055-2.51687 3.7591v2.9544c0 1.2069.98187 2.1889 2.18875 2.1889h56.22503c1.2068 0 2.1887-.9819 2.1887-2.1889v-2.9544c-.0001-1.6535-.988-3.1291-2.5169-3.759zm-21.2681-24.456c1.9116 1.9355 1.2448 4.8885.4894 6.6551-.684-.6898-1.7059-1.6121-2.9589-2.4141-.8489-.5435-1.5159-1.282-1.871-2.0612l1.0703-2.8559c.9021-.2595 2.3351-.2706 3.2702.6761zm-12.6917 8.6295c.4331-.6231 1.9242-2.5054 4.7351-3.5284.8571-.312 1.6527-.7701 2.3512-1.3473.5207.793 1.2458 1.5033 2.125 2.0662 1.5417.9869 2.7127 2.2073 3.2013 2.755-.5165 3.703-2.653 7.6066-6.2101 7.6066-3.5377 0-5.6734-3.8698-6.2025-7.5521zm6.2025 9.4271c.8095 0 1.5848-.1437 2.317-.422v2.7203c-1.1615 1.1629-3.3474 1.2407-4.6318.0007v-2.7201c.7315.2778 1.5061.4211 2.3148.4211zm-13.3067 13.4268h-1.873l1.8729-2.6628zm-9.78333-2.0248-2.68313-3.8145 2.68313-1.1055zm1.87503-3.2751c.9126.384 2.1845.45 3.291-.0001v5.3h-3.291zm5.166-1.645 2.6841 1.106-2.6841 3.8161zm-1.875-2.5281v1.9971c-.818.759-2.3243.857-3.291-.0006 0-.4775 0-1.4853 0-1.9959.9877.5139 2.0917.648 3.291-.0006zm-10.52941 9.1591v-2.9544c0-.7277.35525-1.3911.93413-1.7947l3.56112 5.063h-4.1815c-.173 0-.31375-.1408-.31375-.3139zm17.02171-4.1705c0-1.1455.6844-2.1677 1.7434-2.604l6.2154-2.561c1.1437.9623 2.6199 1.509 4.2837 1.2555v1.797c-.9698.0335-1.7483.8328-1.7483 1.8106v4.7863h-10.4942zm30.946-25.6404c1.4855 0 2.7159 1.1095 2.9082 2.5432-1.804-.7372-3.9698-.7294-5.8193.0238.1816-1.4451 1.4174-2.567 2.9111-2.567zm-3.2192 4.852c.8665-.6075 2.0772-.9818 3.3131-.9818 1.0879 0 2.1954.29 3.1049.9665.9327.6938 2.9451 3.1572 1.9589 6.6558-.8165-.5976-1.9425-2.1528-2.6749-3.5796-.1425-.2782-.4144-.4667-.7248-.5034-.3102-.0366-.6187.0843-.8221.3214-.9346 1.0914-3.7102 3.7926-6.0774 4.194-1.1226-2.7785.2817-5.9225 1.9223-7.0729zm-1.3789 8.8743c2.4434-.5214 4.8145-2.5808 6.061-3.8215.6145 1.105 2.2308 3.1034 3.2193 3.4666-.6387 3.0578-3.0705 5.8559-4.6823 5.8559-1.512 0-3.8456-2.6024-4.598-5.501zm4.5981 7.376c.5342 0 1.09-.139 1.6464-.4029.0001-.0066-.0001 1.0133.0001 1.0931.0343 1.4502-.583 3.0762-1.6433 4.193-.9875-1.0236-1.6678-2.6405-1.6482-4.1515.0008-.049.0002-.9712.0003-1.1317.5385.2555 1.0915.4 1.6447.4zm-3.4165 2.0351c.2339 1.4231.8585 2.7619 1.8173 3.863l.6627.7613v2.3631h-5.2688v-4.4844c0-.4384-.0633-.8682-.1809-1.2792zm12.3013 6.6735c0 .1731-.1408.3139-.3138.3139h-7.6326v-2.3628l.6405-.7291c.9744-1.1094 1.6068-2.4584 1.8411-3.8947l4.1088 1.693c.8237.3393 1.3561 1.1343 1.3561 2.0255z"/>
<path d="m36.5784 58.3614c-.5178 0-.9375.4196-.9375.9375s.4197.9375.9375.9375h3.5411c.5177 0 .9375-.4196.9375-.9375s-.4198-.9375-.9375-.9375z"/>
</g>
</svg>