<?xml version="1.0" standalone="no"?>
<!DOCTYPE svg PUBLIC "-//W3C//DTD SVG 20010904//EN"
 "http://www.w3.org/TR/2001/REC-SVG-20010904/DTD/svg10.dtd">
<svg version="1.0" xmlns="http://www.w3.org/2000/svg"
 width="319.000000pt" height="319.000000pt" viewBox="0 0 319.000000 319.000000"
 preserveAspectRatio="xMidYMid meet">
<metadata>
Created by potrace 1.14, written by Peter Selinger 2001-2017
</metadata>
<g transform="translate(0.000000,319.000000) scale(0.100000,-0.100000)"
fill="#000000" stroke="none">
<path d="M1450 3179 c-543 -48 -1029 -378 -1273 -865 -199 -397 -228 -854 -80
-1254 208 -562 679 -949 1268 -1041 112 -18 359 -15 475 4 589 100 1068 508
1254 1068 111 334 111 674 0 1008 -133 402 -425 736 -804 922 -186 92 -361
140 -575 158 -132 12 -129 12 -265 0z m612 -536 c-11 -16 -93 -122 -182 -238
-119 -155 -160 -215 -156 -230 3 -11 34 -195 70 -410 36 -214 81 -482 101
-594 19 -112 31 -209 28 -215 -13 -20 -305 -401 -323 -419 -16 -18 -24 -9
-186 200 -124 160 -168 225 -167 243 2 23 186 1127 199 1191 4 22 -21 61 -167
250 -94 123 -176 230 -182 237 -7 9 91 12 487 12 l497 0 -19 -27z"/>
</g>
</svg>
