<?xml version="1.0" standalone="no"?>
<!DOCTYPE svg PUBLIC "-//W3C//DTD SVG 20010904//EN"
 "http://www.w3.org/TR/2001/REC-SVG-20010904/DTD/svg10.dtd">
<svg version="1.0" xmlns="http://www.w3.org/2000/svg"
 width="343.000000pt" height="343.000000pt" viewBox="0 0 343.000000 343.000000"
 preserveAspectRatio="xMidYMid meet">
<metadata>
Created by potrace 1.14, written by Peter Selinger 2001-2017
</metadata>
<g transform="translate(0.000000,343.000000) scale(0.100000,-0.100000)"
fill="#000000" stroke="none">
<path d="M513 2778 c-4 -7 -121 -241 -260 -520 l-252 -507 275 -555 274 -556
220 0 c121 0 220 2 220 4 0 2 -121 250 -270 551 -148 301 -270 551 -270 555 0
8 265 552 419 858 l91 182 -219 0 c-165 0 -222 -3 -228 -12z"/>
<path d="M1267 2728 c27 -35 109 -141 182 -236 l133 -173 -52 -312 c-29 -172
-76 -450 -105 -618 l-52 -306 166 -216 c92 -119 169 -218 172 -222 5 -4 194
235 320 404 l27 36 -24 140 c-13 77 -60 355 -105 617 l-80 477 152 198 c84
109 166 215 182 236 l29 37 -497 0 -497 0 49 -62z"/>
<path d="M2561 2608 c154 -306 419 -850 419 -858 0 -4 -121 -254 -270 -555
-148 -301 -270 -549 -270 -551 0 -2 99 -4 220 -4 l220 0 275 556 274 555 -257
519 -257 519 -223 1 -222 0 91 -182z"/>
</g>
</svg>
