<?xml version="1.0" standalone="no"?>
<!DOCTYPE svg PUBLIC "-//W3C//DTD SVG 20010904//EN"
 "http://www.w3.org/TR/2001/REC-SVG-20010904/DTD/svg10.dtd">
<svg version="1.0" xmlns="http://www.w3.org/2000/svg"
 width="350.000000pt" height="350.000000pt" viewBox="0 0 350.000000 350.000000"
 preserveAspectRatio="xMidYMid meet">
<metadata>
Created by potrace 1.14, written by Peter Selinger 2001-2017
</metadata>
<g transform="translate(0.000000,350.000000) scale(0.100000,-0.100000)"
fill="#000000" stroke="none">
<path d="M1615 3340 c-683 -59 -1260 -562 -1411 -1230 -84 -370 -38 -732 136
-1080 224 -446 655 -761 1160 -847 116 -19 363 -22 475 -4 486 76 893 351
1145 773 142 239 213 506 213 803 0 183 -13 285 -59 442 -210 726 -910 1208
-1659 1143z m607 -537 c-11 -16 -93 -122 -182 -238 -119 -155 -160 -215 -156
-230 3 -11 34 -195 70 -410 36 -214 81 -482 101 -594 19 -112 31 -209 28 -215
-13 -20 -305 -401 -323 -419 -16 -18 -24 -9 -186 200 -124 160 -168 225 -167
243 2 23 186 1127 199 1191 4 22 -21 61 -167 250 -94 123 -176 230 -182 237
-7 9 91 12 487 12 l497 0 -19 -27z"/>
</g>
</svg>
