<?xml version="1.0" standalone="no"?>
<!DOCTYPE svg PUBLIC "-//W3C//DTD SVG 20010904//EN"
 "http://www.w3.org/TR/2001/REC-SVG-20010904/DTD/svg10.dtd">
<svg version="1.0" xmlns="http://www.w3.org/2000/svg"
 width="701.000000pt" height="701.000000pt" viewBox="0 0 701.000000 701.000000"
 preserveAspectRatio="xMidYMid meet">
<metadata>
Created by potrace 1.14, written by Peter Selinger 2001-2017
</metadata>
<g transform="translate(0.000000,701.000000) scale(0.100000,-0.100000)"
fill="#000000" stroke="none">
<path d="M3185 6669 c-780 -81 -1508 -449 -2033 -1029 -461 -509 -743 -1143
-812 -1829 -13 -133 -13 -479 0 -612 69 -686 351 -1320 812 -1829 530 -585
1256 -950 2047 -1030 133 -13 479 -13 612 0 686 69 1320 351 1829 812 585 530
950 1256 1030 2047 13 133 13 479 0 612 -80 791 -445 1517 -1030 2047 -509
461 -1143 743 -1829 812 -119 12 -508 11 -626 -1z m-1015 -1679 c96 -126 176
-233 178 -238 2 -6 -73 -108 -165 -228 -93 -121 -190 -247 -216 -282 l-48 -62
84 -108 c46 -59 121 -156 168 -217 46 -60 355 -463 687 -895 332 -432 614
-798 626 -814 l21 -28 793 1031 c553 719 791 1036 784 1044 -181 234 -414 542
-417 551 -5 13 346 471 360 470 5 0 117 -139 248 -310 131 -170 306 -398 390
-506 84 -109 153 -204 155 -212 2 -8 -297 -405 -665 -883 -367 -477 -887
-1154 -1156 -1503 -269 -349 -490 -635 -491 -635 -2 0 -522 675 -1157 1500
-634 825 -1157 1503 -1162 1506 -8 6 788 1049 801 1049 4 -1 86 -104 182 -230z
m1823 218 c-122 -158 -341 -446 -346 -454 -4 -6 40 -287 98 -624 57 -337 101
-618 98 -624 -4 -6 -81 -107 -171 -224 -134 -174 -167 -211 -177 -200 -12 13
-257 331 -307 398 l-26 35 28 165 c16 91 63 368 105 617 l76 452 -133 173
c-74 95 -155 201 -181 236 l-48 62 497 0 c396 0 494 -3 487 -12z"/>
</g>
</svg>
